<?xml version="1.0" encoding="UTF-8"?>
<svg xmlns="http://www.w3.org/2000/svg" xmlns:xlink="http://www.w3.org/1999/xlink" width="20px" height="20px" viewBox="0 0 20 20" version="1.1">
<g id="surface1">
<path style=" stroke:none;fill-rule:nonzero;fill:rgb(0%,0%,0%);fill-opacity:1;" d="M 14.675781 5.269531 C 13.425781 4.019531 11.765625 3.332031 10 3.332031 C 6.355469 3.332031 3.390625 6.296875 3.390625 9.9375 C 3.386719 11.105469 3.691406 12.242188 4.269531 13.242188 L 3.332031 16.667969 L 6.839844 15.746094 C 7.800781 16.273438 8.890625 16.550781 9.996094 16.554688 L 10 16.554688 C 13.640625 16.554688 16.605469 13.589844 16.609375 9.945312 C 16.609375 8.179688 15.921875 6.519531 14.675781 5.269531 Z M 13.230469 12.300781 C 13.09375 12.6875 12.421875 13.058594 12.117188 13.085938 C 11.8125 13.113281 11.527344 13.222656 10.136719 12.671875 C 8.457031 12.011719 7.394531 10.289062 7.3125 10.179688 C 7.230469 10.070312 6.640625 9.285156 6.640625 8.472656 C 6.640625 7.660156 7.066406 7.261719 7.21875 7.097656 C 7.371094 6.929688 7.546875 6.890625 7.660156 6.890625 C 7.769531 6.890625 7.878906 6.890625 7.972656 6.894531 C 8.09375 6.898438 8.222656 6.90625 8.347656 7.179688 C 8.492188 7.503906 8.8125 8.320312 8.855469 8.402344 C 8.898438 8.484375 8.925781 8.585938 8.867188 8.691406 C 8.8125 8.804688 8.785156 8.871094 8.707031 8.96875 C 8.625 9.066406 8.53125 9.183594 8.457031 9.257812 C 8.375 9.339844 8.289062 9.429688 8.386719 9.59375 C 8.480469 9.757812 8.8125 10.300781 9.304688 10.738281 C 9.933594 11.300781 10.464844 11.472656 10.632812 11.554688 C 10.796875 11.640625 10.890625 11.625 10.988281 11.515625 C 11.085938 11.40625 11.402344 11.035156 11.511719 10.867188 C 11.621094 10.703125 11.734375 10.730469 11.882812 10.785156 C 12.035156 10.839844 12.847656 11.242188 13.011719 11.324219 C 13.175781 11.40625 13.285156 11.445312 13.328125 11.515625 C 13.367188 11.585938 13.367188 11.914062 13.230469 12.300781 Z M 13.230469 12.300781 "/>
</g>
</svg>
