<?xml version="1.0" encoding="UTF-8"?>
<svg xmlns="http://www.w3.org/2000/svg" xmlns:xlink="http://www.w3.org/1999/xlink" width="7px" height="11px" viewBox="0 0 7 11" version="1.1">
<g id="surface1">
<path style=" stroke:none;fill-rule:nonzero;fill:rgb(0%,0%,0%);fill-opacity:1;" d="M 2.625 8.59375 C 2.566406 8.59375 2.511719 8.558594 2.46875 8.492188 C 2.429688 8.429688 2.40625 8.339844 2.40625 8.25 C 2.40625 8.160156 2.429688 8.070312 2.46875 8.007812 L 4.066406 5.5 L 2.46875 2.992188 C 2.382812 2.859375 2.382812 2.640625 2.46875 2.507812 C 2.554688 2.371094 2.695312 2.371094 2.78125 2.507812 L 4.53125 5.257812 C 4.570312 5.320312 4.59375 5.410156 4.59375 5.5 C 4.59375 5.589844 4.570312 5.679688 4.53125 5.742188 L 2.78125 8.492188 C 2.738281 8.558594 2.683594 8.59375 2.625 8.59375 Z M 2.625 8.59375 "/>
</g>
</svg>
