<?xml version="1.0" encoding="UTF-8"?>
<svg xmlns="http://www.w3.org/2000/svg" xmlns:xlink="http://www.w3.org/1999/xlink" width="14px" height="14px" viewBox="0 0 14 14" version="1.1">
<g id="surface1">
<path style=" stroke:none;fill-rule:nonzero;fill:rgb(0%,0%,0%);fill-opacity:1;" d="M 13.933594 10.226562 C 13.917969 10.191406 13.902344 10.160156 13.886719 10.136719 C 13.644531 9.699219 13.179688 9.160156 12.496094 8.523438 L 12.472656 8.5 L 12.464844 8.496094 L 12.457031 8.496094 C 12.148438 8.199219 11.949219 8 11.867188 7.894531 C 11.714844 7.703125 11.683594 7.503906 11.765625 7.304688 C 11.824219 7.15625 12.042969 6.835938 12.421875 6.351562 C 12.621094 6.09375 12.777344 5.886719 12.894531 5.730469 C 13.738281 4.609375 14.101562 3.898438 13.988281 3.585938 L 13.945312 3.511719 C 13.917969 3.46875 13.839844 3.429688 13.71875 3.390625 C 13.597656 3.355469 13.441406 3.351562 13.253906 3.375 L 11.152344 3.386719 C 11.117188 3.375 11.070312 3.378906 11.007812 3.390625 C 10.941406 3.40625 10.910156 3.414062 10.910156 3.414062 L 10.875 3.433594 L 10.847656 3.453125 C 10.820312 3.46875 10.796875 3.496094 10.765625 3.53125 C 10.738281 3.566406 10.710938 3.609375 10.691406 3.660156 C 10.464844 4.246094 10.203125 4.792969 9.914062 5.300781 C 9.734375 5.601562 9.566406 5.863281 9.417969 6.082031 C 9.265625 6.304688 9.140625 6.46875 9.039062 6.574219 C 8.933594 6.675781 8.84375 6.761719 8.761719 6.824219 C 8.675781 6.886719 8.613281 6.914062 8.570312 6.90625 C 8.527344 6.894531 8.484375 6.886719 8.445312 6.875 C 8.378906 6.832031 8.324219 6.773438 8.28125 6.695312 C 8.242188 6.621094 8.214844 6.527344 8.199219 6.410156 C 8.183594 6.296875 8.175781 6.199219 8.171875 6.117188 C 8.171875 6.035156 8.171875 5.917969 8.175781 5.765625 C 8.179688 5.617188 8.183594 5.511719 8.183594 5.460938 C 8.183594 5.273438 8.1875 5.074219 8.195312 4.859375 C 8.203125 4.640625 8.207031 4.46875 8.214844 4.34375 C 8.21875 4.21875 8.21875 4.082031 8.21875 3.941406 C 8.21875 3.800781 8.210938 3.691406 8.195312 3.609375 C 8.179688 3.53125 8.152344 3.453125 8.117188 3.378906 C 8.085938 3.300781 8.035156 3.242188 7.96875 3.203125 C 7.902344 3.160156 7.820312 3.128906 7.722656 3.105469 C 7.464844 3.046875 7.136719 3.015625 6.738281 3.007812 C 5.835938 3 5.253906 3.058594 4.996094 3.183594 C 4.894531 3.238281 4.800781 3.3125 4.71875 3.402344 C 4.632812 3.511719 4.621094 3.570312 4.683594 3.578125 C 4.972656 3.621094 5.179688 3.726562 5.300781 3.890625 L 5.347656 3.980469 C 5.378906 4.042969 5.414062 4.15625 5.449219 4.316406 C 5.484375 4.476562 5.503906 4.652344 5.515625 4.847656 C 5.539062 5.203125 5.539062 5.507812 5.515625 5.757812 C 5.488281 6.011719 5.46875 6.207031 5.445312 6.351562 C 5.421875 6.492188 5.390625 6.605469 5.347656 6.691406 C 5.300781 6.78125 5.273438 6.832031 5.257812 6.851562 C 5.246094 6.871094 5.230469 6.882812 5.222656 6.890625 C 5.160156 6.914062 5.09375 6.925781 5.027344 6.925781 C 4.957031 6.925781 4.875 6.890625 4.777344 6.824219 C 4.679688 6.753906 4.578125 6.664062 4.476562 6.542969 C 4.371094 6.425781 4.253906 6.257812 4.121094 6.042969 C 3.988281 5.828125 3.855469 5.578125 3.710938 5.285156 L 3.597656 5.074219 C 3.523438 4.9375 3.421875 4.738281 3.296875 4.480469 C 3.171875 4.21875 3.058594 3.96875 2.960938 3.722656 C 2.921875 3.621094 2.863281 3.542969 2.785156 3.492188 L 2.75 3.46875 C 2.726562 3.449219 2.6875 3.429688 2.632812 3.40625 C 2.578125 3.382812 2.523438 3.367188 2.464844 3.359375 L 0.46875 3.375 C 0.261719 3.375 0.125 3.417969 0.0507812 3.511719 L 0.0234375 3.554688 C 0.0078125 3.582031 0 3.621094 0 3.671875 C 0 3.726562 0.015625 3.792969 0.0429688 3.871094 C 0.335938 4.554688 0.652344 5.214844 0.996094 5.855469 C 1.339844 6.492188 1.636719 7.003906 1.890625 7.390625 C 2.140625 7.78125 2.398438 8.148438 2.664062 8.492188 C 2.925781 8.839844 3.097656 9.058594 3.183594 9.15625 C 3.269531 9.253906 3.335938 9.328125 3.382812 9.375 L 3.566406 9.550781 C 3.683594 9.667969 3.855469 9.808594 4.082031 9.972656 C 4.308594 10.132812 4.558594 10.292969 4.832031 10.453125 C 5.105469 10.609375 5.425781 10.738281 5.792969 10.839844 C 6.15625 10.9375 6.511719 10.980469 6.855469 10.960938 L 7.695312 10.960938 C 7.867188 10.945312 7.996094 10.890625 8.082031 10.800781 L 8.109375 10.761719 C 8.128906 10.734375 8.148438 10.6875 8.164062 10.628906 C 8.183594 10.566406 8.191406 10.5 8.191406 10.425781 C 8.1875 10.21875 8.203125 10.03125 8.238281 9.863281 C 8.273438 9.695312 8.316406 9.566406 8.363281 9.484375 C 8.410156 9.398438 8.460938 9.324219 8.519531 9.265625 C 8.578125 9.210938 8.617188 9.171875 8.644531 9.160156 C 8.667969 9.148438 8.6875 9.140625 8.703125 9.136719 C 8.816406 9.097656 8.957031 9.136719 9.113281 9.25 C 9.273438 9.363281 9.421875 9.503906 9.558594 9.671875 C 9.699219 9.839844 9.863281 10.027344 10.058594 10.238281 C 10.253906 10.445312 10.421875 10.601562 10.570312 10.703125 L 10.714844 10.792969 C 10.8125 10.851562 10.9375 10.902344 11.09375 10.953125 C 11.25 11 11.386719 11.011719 11.503906 10.988281 L 13.371094 10.960938 C 13.554688 10.960938 13.699219 10.929688 13.800781 10.867188 C 13.902344 10.808594 13.964844 10.742188 13.984375 10.667969 C 14.003906 10.59375 14.003906 10.511719 13.984375 10.417969 C 13.96875 10.328125 13.953125 10.261719 13.933594 10.226562 Z M 13.933594 10.226562 "/>
</g>
</svg>
