<?xml version="1.0" encoding="UTF-8"?>
<svg xmlns="http://www.w3.org/2000/svg" xmlns:xlink="http://www.w3.org/1999/xlink" width="20px" height="20px" viewBox="0 0 20 20" version="1.1">
<g id="surface1">
<path style=" stroke:none;fill-rule:nonzero;fill:rgb(0%,0%,0%);fill-opacity:1;" d="M 10 1.667969 C 5.398438 1.667969 1.667969 5.398438 1.667969 10 C 1.667969 14.601562 5.398438 18.332031 10 18.332031 C 14.601562 18.332031 18.332031 14.601562 18.332031 10 C 18.332031 5.398438 14.601562 1.667969 10 1.667969 Z M 10 4.167969 C 11.382812 4.167969 12.5 5.285156 12.5 6.667969 C 12.5 8.050781 11.382812 9.167969 10 9.167969 C 8.617188 9.167969 7.5 8.050781 7.5 6.667969 C 7.5 5.285156 8.617188 4.167969 10 4.167969 Z M 10 16 C 7.917969 16 6.074219 14.933594 5 13.316406 C 5.023438 11.660156 8.332031 10.75 10 10.75 C 11.660156 10.75 14.976562 11.660156 15 13.316406 C 13.925781 14.933594 12.082031 16 10 16 Z M 10 16 "/>
</g>
</svg>
