<?xml version="1.0" encoding="UTF-8"?>
<svg xmlns="http://www.w3.org/2000/svg" xmlns:xlink="http://www.w3.org/1999/xlink" width="14px" height="14px" viewBox="0 0 14 14" version="1.1">
<g id="surface1">
<path style=" stroke:none;fill-rule:nonzero;fill:rgb(0%,0%,0%);fill-opacity:1;" d="M 12.25 0 L 1.75 0 C 0.761719 0 0 0.761719 0 1.75 L 0 12.25 C 0 13.238281 0.761719 14 1.75 14 L 12.25 14 C 13.238281 14 14 13.238281 14 12.25 L 14 1.75 C 14 0.761719 13.238281 0 12.25 0 Z M 7.011719 4.25 C 8.5625 4.25 9.820312 5.46875 9.820312 6.972656 C 9.820312 8.476562 8.5625 9.699219 7.011719 9.699219 C 5.457031 9.699219 4.199219 8.476562 4.199219 6.972656 C 4.199219 5.46875 5.460938 4.25 7.011719 4.25 Z M 12.25 11.8125 C 12.25 12.121094 12.117188 12.25 11.8125 12.25 L 2.1875 12.25 C 1.882812 12.25 1.75 12.121094 1.75 11.8125 L 1.75 5.6875 L 2.839844 5.925781 C 2.722656 6.304688 2.660156 6.707031 2.660156 7.125 C 2.660156 9.453125 4.609375 11.339844 7.011719 11.339844 C 9.414062 11.339844 11.359375 9.453125 11.359375 7.125 C 11.359375 6.707031 11.296875 6.304688 11.179688 5.925781 L 12.25 5.6875 Z M 12.25 3.9375 C 12.25 4.179688 12.054688 4.375 11.8125 4.375 L 10.0625 4.375 C 9.820312 4.375 9.625 4.179688 9.625 3.9375 L 9.625 2.1875 C 9.625 1.945312 9.820312 1.75 10.0625 1.75 L 11.8125 1.75 C 12.054688 1.75 12.25 1.945312 12.25 2.1875 Z M 12.25 3.9375 "/>
</g>
</svg>
