<?xml version="1.0" encoding="UTF-8"?>
<svg xmlns="http://www.w3.org/2000/svg" xmlns:xlink="http://www.w3.org/1999/xlink" width="14px" height="14px" viewBox="0 0 14 14" version="1.1">
<g id="surface1">
<path style=" stroke:none;fill-rule:nonzero;fill:rgb(0%,0%,0%);fill-opacity:1;" d="M 6.5625 3.644531 C 7.128906 3.644531 7.589844 4.105469 7.589844 4.671875 C 7.589844 5.238281 7.128906 5.699219 6.5625 5.699219 C 5.996094 5.699219 5.535156 5.238281 5.535156 4.671875 C 5.535156 4.105469 5.996094 3.644531 6.5625 3.644531 Z M 6.5625 7.15625 C 7.933594 7.15625 9.046875 6.042969 9.046875 4.671875 C 9.046875 3.300781 7.933594 2.1875 6.5625 2.1875 C 5.191406 2.1875 4.078125 3.300781 4.078125 4.671875 C 4.078125 6.042969 5.191406 7.15625 6.5625 7.15625 Z M 7.566406 9.179688 C 8.074219 9.066406 8.5625 8.867188 9.011719 8.585938 C 9.351562 8.371094 9.453125 7.921875 9.238281 7.582031 C 9.023438 7.238281 8.574219 7.136719 8.234375 7.351562 C 7.21875 7.992188 5.90625 7.992188 4.890625 7.351562 C 4.550781 7.136719 4.101562 7.238281 3.886719 7.582031 C 3.671875 7.921875 3.773438 8.371094 4.113281 8.585938 C 4.5625 8.867188 5.050781 9.066406 5.558594 9.179688 L 4.167969 10.570312 C 3.882812 10.855469 3.882812 11.316406 4.167969 11.597656 C 4.3125 11.742188 4.496094 11.8125 4.683594 11.8125 C 4.871094 11.8125 5.054688 11.742188 5.199219 11.597656 L 6.5625 10.234375 L 7.925781 11.597656 C 8.210938 11.882812 8.671875 11.882812 8.957031 11.597656 C 9.242188 11.316406 9.242188 10.855469 8.957031 10.570312 C 8.957031 10.570312 7.566406 9.179688 7.566406 9.179688 Z M 7.566406 9.179688 "/>
</g>
</svg>
