<?xml version="1.0" encoding="UTF-8"?>
<svg xmlns="http://www.w3.org/2000/svg" xmlns:xlink="http://www.w3.org/1999/xlink" width="20px" height="20px" viewBox="0 0 20 20" version="1.1">
<g id="surface1">
<path style=" stroke:none;fill-rule:nonzero;fill:rgb(0%,0%,0%);fill-opacity:1;" d="M 16.667969 2.5 L 3.332031 2.5 C 1.953125 2.5 0.832031 3.621094 0.832031 5 L 0.832031 15 C 0.832031 16.378906 1.953125 17.5 3.332031 17.5 L 16.667969 17.5 C 18.046875 17.5 19.167969 16.378906 19.167969 15 L 19.167969 5 C 19.167969 3.621094 18.046875 2.5 16.667969 2.5 Z M 16.667969 4.167969 C 16.761719 4.167969 16.851562 4.183594 16.941406 4.214844 L 10 9.765625 L 3.058594 4.214844 C 3.148438 4.183594 3.238281 4.167969 3.332031 4.167969 Z M 16.667969 15.832031 L 3.332031 15.832031 C 2.875 15.832031 2.5 15.457031 2.5 15 L 2.5 5.898438 L 9.480469 11.484375 C 9.632812 11.605469 9.816406 11.667969 10 11.667969 C 10.183594 11.667969 10.367188 11.605469 10.519531 11.484375 L 17.5 5.898438 L 17.5 15 C 17.5 15.457031 17.125 15.832031 16.667969 15.832031 Z M 16.667969 15.832031 "/>
</g>
</svg>
