<?xml version="1.0" encoding="UTF-8"?>
<svg xmlns="http://www.w3.org/2000/svg" xmlns:xlink="http://www.w3.org/1999/xlink" width="20px" height="20px" viewBox="0 0 20 20" version="1.1">
<g id="surface1">
<path style=" stroke:none;fill-rule:nonzero;fill:rgb(0%,0%,0%);fill-opacity:1;" d="M 16.667969 10 C 16.667969 9.082031 17.417969 8.332031 18.332031 8.332031 L 18.332031 5 C 18.332031 4.082031 17.582031 3.332031 16.667969 3.332031 L 3.332031 3.332031 C 2.417969 3.332031 1.675781 4.082031 1.675781 5 L 1.675781 8.332031 C 2.589844 8.332031 3.332031 9.082031 3.332031 10 C 3.332031 10.917969 2.589844 11.667969 1.667969 11.667969 L 1.667969 15 C 1.667969 15.917969 2.417969 16.667969 3.332031 16.667969 L 16.667969 16.667969 C 17.582031 16.667969 18.332031 15.917969 18.332031 15 L 18.332031 11.667969 C 17.417969 11.667969 16.667969 10.917969 16.667969 10 Z M 12.984375 14 L 10 12.082031 L 7.015625 14 L 7.917969 10.566406 L 5.175781 8.324219 L 8.707031 8.117188 L 10 4.832031 L 11.285156 8.125 L 14.816406 8.332031 L 12.074219 10.574219 Z M 12.984375 14 "/>
</g>
</svg>
