<?xml version="1.0" encoding="UTF-8"?>
<svg xmlns="http://www.w3.org/2000/svg" xmlns:xlink="http://www.w3.org/1999/xlink" width="14px" height="14px" viewBox="0 0 14 14" version="1.1">
<g id="surface1">
<path style=" stroke:none;fill-rule:nonzero;fill:rgb(0%,0%,0%);fill-opacity:1;" d="M 0.109375 12.046875 C 1.628906 12.179688 3 11.796875 4.246094 10.863281 C 2.941406 10.75 2.070312 10.097656 1.582031 8.878906 C 2.007812 8.929688 2.410156 8.945312 2.832031 8.828125 C 1.425781 8.390625 0.679688 7.472656 0.578125 5.992188 C 1 6.1875 1.394531 6.332031 1.863281 6.335938 C 1.027344 5.710938 0.601562 4.898438 0.617188 3.875 C 0.625 3.40625 0.753906 2.960938 1 2.542969 C 2.546875 4.351562 4.484375 5.351562 6.871094 5.519531 C 6.859375 5.414062 6.851562 5.332031 6.839844 5.246094 C 6.640625 3.734375 7.625 2.355469 9.128906 2.066406 C 10.074219 1.886719 10.90625 2.136719 11.613281 2.785156 C 11.722656 2.882812 11.816406 2.90625 11.953125 2.871094 C 12.5 2.730469 13.023438 2.53125 13.53125 2.257812 C 13.335938 2.894531 12.9375 3.375 12.394531 3.78125 C 12.519531 3.757812 12.644531 3.742188 12.765625 3.71875 C 12.894531 3.691406 13.023438 3.660156 13.152344 3.625 C 13.277344 3.59375 13.394531 3.554688 13.515625 3.515625 C 13.640625 3.472656 13.761719 3.425781 13.90625 3.402344 C 13.835938 3.5 13.769531 3.605469 13.691406 3.699219 C 13.375 4.101562 13.007812 4.453125 12.605469 4.769531 C 12.566406 4.800781 12.527344 4.871094 12.53125 4.921875 C 12.554688 5.890625 12.417969 6.839844 12.101562 7.757812 C 11.484375 9.566406 10.40625 11.03125 8.792969 12.082031 C 7.992188 12.597656 7.121094 12.9375 6.1875 13.132812 C 5.265625 13.328125 4.335938 13.363281 3.402344 13.253906 C 2.464844 13.144531 1.578125 12.867188 0.742188 12.4375 C 0.519531 12.324219 0.304688 12.199219 0.0898438 12.078125 C 0.0976562 12.066406 0.105469 12.054688 0.109375 12.046875 Z M 0.109375 12.046875 "/>
</g>
</svg>
