<?xml version="1.0" encoding="UTF-8"?>
<svg xmlns="http://www.w3.org/2000/svg" xmlns:xlink="http://www.w3.org/1999/xlink" width="20px" height="20px" viewBox="0 0 20 20" version="1.1">
<g id="surface1">
<path style=" stroke:none;fill-rule:nonzero;fill:rgb(0%,0%,0%);fill-opacity:1;" d="M 19.917969 15.949219 L 19.816406 15.644531 C 19.582031 14.941406 18.808594 14.214844 18.097656 14.019531 L 15.46875 13.300781 C 14.753906 13.109375 13.738281 13.371094 13.21875 13.890625 L 12.265625 14.84375 C 8.8125 13.90625 6.097656 11.199219 5.167969 7.738281 L 6.121094 6.792969 C 6.640625 6.269531 6.902344 5.253906 6.703125 4.542969 L 5.988281 1.910156 C 5.796875 1.199219 5.0625 0.425781 4.363281 0.191406 L 4.0625 0.09375 C 3.359375 -0.140625 2.363281 0.09375 1.839844 0.613281 L 0.417969 2.042969 C 0.160156 2.292969 0 3.015625 0 3.019531 C -0.046875 7.535156 1.722656 11.890625 4.917969 15.082031 C 8.105469 18.269531 12.441406 20.042969 16.949219 20.003906 C 16.96875 20.003906 17.714844 19.84375 17.96875 19.59375 L 19.390625 18.167969 C 19.910156 17.644531 20.152344 16.644531 19.917969 15.949219 Z M 19.917969 15.949219 "/>
</g>
</svg>
