<?xml version="1.0" encoding="UTF-8"?>
<svg xmlns="http://www.w3.org/2000/svg" xmlns:xlink="http://www.w3.org/1999/xlink" width="14px" height="14px" viewBox="0 0 14 14" version="1.1">
<g id="surface1">
<path style=" stroke:none;fill-rule:evenodd;fill:rgb(26.666667%,37.647059%,62.745098%);fill-opacity:1;" d="M 7.476562 14 L 0.773438 14 C 0.347656 14 0 13.652344 0 13.226562 L 0 0.773438 C 0 0.347656 0.347656 0 0.773438 0 L 13.226562 0 C 13.652344 0 14 0.347656 14 0.773438 L 14 13.226562 C 14 13.652344 13.652344 14 13.226562 14 L 9.660156 14 L 9.660156 8.578125 L 11.480469 8.578125 L 11.753906 6.464844 L 9.660156 6.464844 L 9.660156 5.117188 C 9.660156 4.503906 9.828125 4.089844 10.707031 4.089844 L 11.824219 4.085938 L 11.824219 2.199219 C 11.632812 2.171875 10.96875 2.113281 10.195312 2.113281 C 8.582031 2.113281 7.476562 3.097656 7.476562 4.90625 L 7.476562 6.464844 L 5.652344 6.464844 L 5.652344 8.578125 L 7.476562 8.578125 Z M 7.476562 14 "/>
</g>
</svg>
