<?xml version="1.0" encoding="UTF-8"?>
<svg xmlns="http://www.w3.org/2000/svg" xmlns:xlink="http://www.w3.org/1999/xlink" width="61px" height="43px" viewBox="0 0 61 43" version="1.1">
<g id="surface1">
<path style=" stroke:none;fill-rule:evenodd;fill:rgb(80.784314%,7.45098%,7.058824%);fill-opacity:1;" d="M 60.390625 12.839844 C 60.390625 12.839844 59.792969 9.855469 57.964844 8.542969 C 55.644531 6.816406 53.046875 6.808594 51.855469 6.710938 C 43.316406 6.269531 30.511719 6.269531 30.511719 6.269531 L 30.488281 6.269531 C 30.488281 6.269531 17.683594 6.269531 9.144531 6.710938 C 7.953125 6.808594 5.355469 6.816406 3.03125 8.542969 C 1.203125 9.855469 0.609375 12.839844 0.609375 12.839844 C 0.609375 12.839844 0 16.347656 0 19.847656 L 0 23.136719 C 0 26.640625 0.609375 30.144531 0.609375 30.144531 C 0.609375 30.144531 1.203125 33.128906 3.03125 34.441406 C 5.355469 36.167969 8.402344 36.113281 9.761719 36.292969 C 14.640625 36.625 30.5 36.730469 30.5 36.730469 C 30.5 36.730469 43.316406 36.714844 51.855469 36.277344 C 53.046875 36.175781 55.644531 36.167969 57.964844 34.441406 C 59.792969 33.128906 60.390625 30.144531 60.390625 30.144531 C 60.390625 30.144531 61 26.640625 61 23.136719 L 61 19.847656 C 61 16.347656 60.390625 12.839844 60.390625 12.839844 Z M 24.203125 27.117188 L 24.199219 14.949219 L 40.679688 21.054688 Z M 24.203125 27.117188 "/>
</g>
</svg>
