<?xml version="1.0" encoding="UTF-8"?>
<svg xmlns="http://www.w3.org/2000/svg" xmlns:xlink="http://www.w3.org/1999/xlink" width="14px" height="14px" viewBox="0 0 14 14" version="1.1">
<g id="surface1">
<path style=" stroke:none;fill-rule:nonzero;fill:rgb(0%,0%,0%);fill-opacity:1;" d="M 7.121094 12.277344 C 5.558594 12.226562 4.074219 12.191406 2.589844 12.132812 C 2.269531 12.117188 1.945312 12.070312 1.632812 11.996094 C 1.046875 11.859375 0.640625 11.507812 0.433594 10.929688 C 0.269531 10.464844 0.207031 9.984375 0.164062 9.5 C 0.0703125 8.355469 0.0703125 7.214844 0.113281 6.070312 C 0.140625 5.425781 0.160156 4.773438 0.332031 4.148438 C 0.433594 3.773438 0.5625 3.40625 0.863281 3.136719 C 1.183594 2.847656 1.558594 2.675781 1.984375 2.65625 C 3.15625 2.601562 4.324219 2.527344 5.492188 2.519531 C 7.070312 2.5 8.644531 2.523438 10.222656 2.554688 C 10.902344 2.566406 11.589844 2.601562 12.265625 2.691406 C 12.882812 2.773438 13.34375 3.117188 13.589844 3.71875 C 13.777344 4.179688 13.851562 4.664062 13.890625 5.15625 C 13.996094 6.390625 14 7.625 13.941406 8.855469 C 13.910156 9.484375 13.878906 10.113281 13.703125 10.722656 C 13.5 11.421875 13.070312 11.882812 12.355469 12.042969 C 12.074219 12.101562 11.785156 12.125 11.5 12.136719 C 10.011719 12.1875 8.527344 12.234375 7.121094 12.277344 Z M 5.609375 9.167969 C 6.855469 8.523438 8.089844 7.882812 9.347656 7.230469 C 8.089844 6.574219 6.859375 5.929688 5.609375 5.277344 C 5.609375 6.582031 5.609375 7.863281 5.609375 9.167969 Z M 5.609375 9.167969 "/>
</g>
</svg>
